<?xml version="1.0" encoding="utf-8"?>
<!-- Generator: Adobe Illustrator 23.0.5, SVG Export Plug-In . SVG Version: 6.00 Build 0)  -->
<svg version="1.1" id="Capa_1" xmlns="http://www.w3.org/2000/svg" xmlns:xlink="http://www.w3.org/1999/xlink" x="0px" y="0px"
	 viewBox="0 0 512 512" style="enable-background:new 0 0 512 512;" xml:space="preserve">
<style type="text/css">
	.st0{fill:#FD002C;}
</style>
<g id="Group_2" transform="translate(-62.4 -25.4)">
	<path id="Path_3" class="st0" d="M318.4,64.4l-169.81,78.91v118.36c0,109.47,72.33,211.58,169.81,236.73
		c97.48-24.77,169.81-127.26,169.81-236.73V143.31L318.4,64.4z M457.27,261.67c-0.16,47.32-15.03,93.41-42.55,131.9
		c-25.53,35.59-59.18,61.12-96.31,72.33c-36.75-11.6-70.79-36.75-96.31-72.33c-27.46-38.52-42.33-84.6-42.54-131.9v-98.63
		l138.87-64.21l138.87,64.6L457.27,261.67z"/>
	<path id="Path_4" class="st0" d="M313.92,162.65c-47.94,0-86.77,5.42-86.77,43.39v108.46c0.03,9.2,3.97,17.96,10.85,24.08v19.31
		c0,5.99,4.86,10.85,10.85,10.85l0,0h10.85c5.99,0,10.85-4.86,10.85-10.85l0,0v-10.84h86.77v10.85c0,5.99,4.85,10.85,10.84,10.85
		c0,0,0,0,0.01,0H379c5.99,0,10.85-4.86,10.85-10.85l0,0v-19.31c6.87-6.12,10.82-14.88,10.85-24.08V206.03
		C400.69,168.07,361.86,162.65,313.92,162.65z M265.11,325.35c-8.99,0-16.27-7.28-16.27-16.27c0-8.99,7.28-16.27,16.27-16.27
		c8.99,0,16.27,7.28,16.27,16.27C281.38,318.06,274.09,325.35,265.11,325.35C265.11,325.35,265.11,325.35,265.11,325.35z
		 M362.73,325.35c-8.99,0-16.27-7.28-16.27-16.27c0-8.99,7.28-16.27,16.27-16.27c8.99,0,16.27,7.28,16.27,16.27
		C378.99,318.06,371.71,325.35,362.73,325.35C362.73,325.35,362.73,325.35,362.73,325.35z M378.99,260.27H248.84v-54.23h130.16
		L378.99,260.27z"/>
</g>
</svg>
