<svg xmlns="http://www.w3.org/2000/svg" width="115.189" height="147.2" viewBox="0 0 115.189 147.2">
  <g id="Group_2" data-name="Group 2" transform="translate(-62.4 -25.4)">
    <path id="Path_3" data-name="Path 3" d="M119.994,25.4,62.4,52.164V92.309c0,37.128,24.533,71.763,57.594,80.291,33.061-8.4,57.594-43.163,57.594-80.291V52.164Zm47.1,66.909a77.365,77.365,0,0,1-14.431,44.737c-8.659,12.07-20.073,20.729-32.667,24.533-12.463-3.936-24.009-12.463-32.667-24.533A77.67,77.67,0,0,1,72.9,92.309V58.855l47.1-21.778,47.1,21.909Z" fill="#fd002c"/>
    <path id="Path_4" data-name="Path 4" d="M173.062,127c-16.26,0-29.43,1.839-29.43,14.715V178.5a10.984,10.984,0,0,0,3.679,8.167v6.548a3.679,3.679,0,0,0,3.679,3.679h3.679a3.679,3.679,0,0,0,3.679-3.679V189.54h29.43v3.679a3.678,3.678,0,0,0,3.679,3.679h3.679a3.679,3.679,0,0,0,3.679-3.679V186.67a10.986,10.986,0,0,0,3.679-8.167V141.715C202.493,128.839,189.322,127,173.062,127Zm-16.554,55.182a5.518,5.518,0,1,1,5.518-5.518A5.518,5.518,0,0,1,156.508,182.182Zm33.109,0a5.518,5.518,0,1,1,5.518-5.518A5.518,5.518,0,0,1,189.617,182.182Zm5.518-22.073H150.989V141.715h44.146Z" transform="translate(-54.589 -68.277)" fill="#fd002c"/>
  </g>
</svg>
