<?xml version="1.0" encoding="utf-8"?>
<!-- Generator: Adobe Illustrator 23.0.5, SVG Export Plug-In . SVG Version: 6.00 Build 0)  -->
<svg version="1.1" id="Capa_1" xmlns="http://www.w3.org/2000/svg" xmlns:xlink="http://www.w3.org/1999/xlink" x="0px" y="0px"
	 viewBox="0 0 512 512" style="enable-background:new 0 0 512 512;" xml:space="preserve">
<style type="text/css">
	.st0{fill:#FFFFFF;}
</style>
<g>
	<path id="ic_directions_bus_24px" class="st0" d="M62.41,375.43c0.04,13.5,5.83,26.35,15.91,35.33v28.33
		c0,8.79,7.12,15.91,15.91,15.91h15.91c8.79,0,15.91-7.12,15.91-15.91v-15.91h127.31v15.91c0,8.79,7.12,15.91,15.91,15.91h15.91
		c8.79,0,15.91-7.12,15.91-15.91v-28.33c10.08-8.98,15.87-21.83,15.91-35.33V216.29c0-55.7-56.97-63.66-127.31-63.66
		s-127.31,7.96-127.31,63.66V375.43z M118.11,391.34c-13.18,0-23.87-10.69-23.87-23.87s10.69-23.87,23.87-23.87
		s23.87,10.69,23.87,23.87S131.3,391.34,118.11,391.34z M261.34,391.34c-13.18,0-23.87-10.69-23.87-23.87s10.69-23.87,23.87-23.87
		c13.18,0,23.87,10.69,23.87,23.87S274.52,391.34,261.34,391.34z M285.21,295.86H94.24v-79.57h190.97V295.86z"/>
	<path id="ic_my_location_24px" class="st0" d="M380.03,101.26c-13.97,0-25.29,11.32-25.29,25.29s11.32,25.29,25.29,25.29
		c13.97,0,25.29-11.32,25.29-25.29S394,101.26,380.03,101.26z M436.56,120.23c-2.95-26.41-23.8-47.26-50.2-50.2V57h-12.65v13.03
		c-26.41,2.95-47.26,23.8-50.2,50.2h-13.03v12.65h13.03c2.95,26.41,23.8,47.26,50.2,50.2v13.03h12.65v-13.03
		c26.41-2.95,47.26-23.8,50.2-50.2h13.03v-12.65C449.59,120.23,436.56,120.23,436.56,120.23z M380.03,170.81
		c-24.44,0-44.26-19.82-44.26-44.26s19.82-44.26,44.26-44.26c24.44,0,44.26,19.82,44.26,44.26c0.02,24.43-19.77,44.24-44.2,44.26
		C380.07,170.81,380.05,170.81,380.03,170.81z"/>
</g>
</svg>
